<?xml version="1.0" ?><svg enable-background="new 0 0 24 24" id="Layer_1" version="1.1" viewBox="0 0 24 24" xml:space="preserve" xmlns="http://www.w3.org/2000/svg" xmlns:xlink="http://www.w3.org/1999/xlink"><g><path d="M19.5,0h-15C4.2236328,0,4,0.2236328,4,0.5v23C4,23.7763672,4.2236328,24,4.5,24h15   c0.2763672,0,0.5-0.2236328,0.5-0.5v-23C20,0.2236328,19.7763672,0,19.5,0z" fill="#303C42"/><path d="M19,1v3h-4.2573242c-0.9345703,0-1.8134766,0.3642578-2.4750977,1.0253906l-1.2421875,1.2421875   C10.5527344,6.7402344,9.9248047,7,9.2573242,7H5V1H19z" fill="#F1563F"/><rect fill="#FFFFFF" height="1" opacity="0.2" width="14" x="5" y="1"/><rect fill="#F1563F" height="12" width="1" x="18" y="8"/><rect fill="#F1563F" height="2" width="1" x="18" y="5"/><path d="M5,8h4.2573242c0.9345703,0,1.8134766-0.3642578,2.4750977-1.0253906l1.2421875-1.2421875   C13.4472656,5.2597656,14.0751953,5,14.7426758,5H17v18H5V8z" fill="#F1563F"/><path d="M14.7426758,5c-0.6674805,0-1.2954102,0.2597656-1.7680664,0.7324219l-1.2421875,1.2421875   C11.0708008,7.6357422,10.1918945,8,9.2573242,8H5v1h4.2573242c0.9345703,0,1.8134766-0.3642578,2.4750977-1.0253906   l1.2421875-1.2421875C13.4472656,6.2597656,14.0751953,6,14.7426758,6H17V5H14.7426758z" fill="#FFFFFF" opacity="0.2"/><rect fill="#F1563F" height="2" width="1" x="18" y="21"/><circle cx="8" cy="4" fill="#303C42" r="2"/><circle cx="8" cy="4" fill="#0288D1" r="1"/><linearGradient gradientUnits="userSpaceOnUse" id="SVGID_1_" x1="7.093699" x2="8.9063015" y1="3.5773847" y2="4.4226151"><stop offset="0" style="stop-color:#FFFFFF;stop-opacity:0.2"/><stop offset="1" style="stop-color:#FFFFFF;stop-opacity:0"/></linearGradient><circle cx="8" cy="4" fill="url(#SVGID_1_)" r="1"/><circle cx="11.5" cy="2.5" fill="#303C42" r="0.5"/><circle cx="13.5" cy="2.5" fill="#303C42" r="0.5"/><circle cx="15.5" cy="2.5" fill="#303C42" r="0.5"/><path d="M6.8535156,13.1464844c-0.1430664-0.1435547-0.3574219-0.1835938-0.5449219-0.1083984   C6.121582,13.1152344,6,13.2978516,6,13.5v2c0,0.2021484,0.121582,0.3847656,0.3085938,0.4619141   C6.3706055,15.9873047,6.4355469,16,6.5,16c0.1298828,0,0.2578125-0.0507812,0.3535156-0.1464844l1-1   c0.1953125-0.1953125,0.1953125-0.5117188,0-0.7070312L6.8535156,13.1464844z" fill="#FFD600"/><path d="M14.5,21h-5C9.2236328,21,9,21.2236328,9,21.5S9.2236328,22,9.5,22h5c0.2763672,0,0.5-0.2236328,0.5-0.5   S14.7763672,21,14.5,21z" fill="#303C42"/><linearGradient gradientUnits="userSpaceOnUse" id="SVGID_2_" x1="0.9814615" x2="23.0185375" y1="6.8619709" y2="17.1380291"><stop offset="0" style="stop-color:#FFFFFF;stop-opacity:0.2"/><stop offset="1" style="stop-color:#FFFFFF;stop-opacity:0"/></linearGradient><path d="M19.5,0h-15C4.2236328,0,4,0.2236328,4,0.5v23C4,23.7763672,4.2236328,24,4.5,24h15   c0.2763672,0,0.5-0.2236328,0.5-0.5v-23C20,0.2236328,19.7763672,0,19.5,0z" fill="url(#SVGID_2_)"/></g><g/><g/><g/><g/><g/><g/><g/><g/><g/><g/><g/><g/><g/><g/><g/></svg>